<?xml version="1.0" encoding="utf-8"?>
<!-- Generator: Adobe Illustrator 25.1.0, SVG Export Plug-In . SVG Version: 6.00 Build 0)  -->
<svg version="1.1" id="Слой_1" xmlns="http://www.w3.org/2000/svg" xmlns:xlink="http://www.w3.org/1999/xlink" x="0px" y="0px"
	 viewBox="0 0 50 50" style="enable-background:new 0 0 50 50;" xml:space="preserve">
<style type="text/css">
	.st0{fill:#34B1E4;}
	.st1{fill:#D7DF23;}
	.st2{fill:#F9F98F;}
	.st3{opacity:0.2;fill:#212A3C;}
	.st4{opacity:0.3;fill:url(#SVGID_1_);}
	.st5{opacity:0.3;fill:#FFFFFF;}
</style>
<g>
	<g>
		<path class="st0" d="M50,25c0,13.8-11.2,25-25,25C11.2,50,0,38.8,0,25C0,11.2,11.2,0,25,0C38.8,0,50,11.2,50,25z"/>
		<g>
			<path class="st1" d="M26.6,41.2c0.8-1.4-0.1-4.2-0.1-4.9c0-0.7-3.8-2.6-4.8-2.9c-0.9-0.3-1.4,0.2-1.4,0.2s-5.5,1.6-6.2,2.7
				c-0.7,1.1-5-1.1-5.2-2.1c-0.2-1-1.2-4.1-1.3-4.4c-0.1-0.3-4.6-3.5-5.1-3.6c-0.2,0-1.3,0.3-2.5,0.9c1,11.8,10.2,21.3,21.8,22.7
				c0.1-1.5-0.1-2.8,0-4.6c0.2-2.3,0.4-1.3,2.1-2.1C25.7,42.2,25.8,42.6,26.6,41.2z"/>
			<path class="st1" d="M31.3,43.4c-0.3,0.8-0.3,1.4,0.6,1.7c0.7,0.2,1.3,0,2-0.2c0.6-0.1,1.4,0,1.8-0.4c1.4-1.2,0.3-2.4-0.9-3.2
				c-0.4-0.3-0.8-0.5-1.1-0.8C32,39.4,31.7,42.5,31.3,43.4z"/>
			<path class="st1" d="M38,3.6c-1.4,2.1-2.6,4.8-1.5,7.1c2.1,4.6,5.5,2.7,2.6,9.4c-2.9,6.6-5,3.8-4.7,10.3
				c0.3,6.6,1.5,10.5,3.8,10.4c2.2-0.1,2.8-8.9,8.6-8.1c0.7,0.1,1.3,0.3,1.8,0.5c0.9-2.6,1.4-5.3,1.4-8.2C50,16,45.2,8,38,3.6z"/>
			<path class="st1" d="M8.6,9.7c2,1.2,2.5,1.1,5.1,4.8c2.6,3.7-0.9,4.5-1.7,7.7c-0.9,3.2-0.7,5.4,0.5,6.4c1.2,1,8.5,0.6,8-1.9
				c-0.5-2.5-0.6-5.8-0.6-8.7s2.1-1,4.9-2.2c2.8-1.2,2.3-6.2,2.3-7.2c0-0.9-2.3-4.5-4-5.5c-0.7-0.4-1.9-1.5-3.1-2.5
				C14.3,1.6,9.2,4.8,5.6,9.3C6.4,9.5,7.5,9,8.6,9.7z"/>
			<path class="st1" d="M35.2,16.2c-0.5-0.7-1.3-1-2.1-0.9c-0.3,0-0.6,0.1-0.8,0.1c-1.2,0.4-1.9,1.6-2.1,2.8c-0.1,1,0.4,4.7,0.5,5
				c0.1,0.3,0.2,1.3,0.1,2c0,0.4,1-0.1,1.1-0.2c0.7-0.3,1.3-0.7,1.7-1.3c0.4-0.7,0.5-1.6,0.8-2.3C35.1,19.8,36.4,17.8,35.2,16.2z"/>
		</g>
		<g>
			<path class="st2" d="M45.8,28.8c0.6-0.2,0.9-0.4,1.1-1c0.3-1.3-0.4-2.7-1.3-3.6c-0.5-0.5-1.2-0.8-2-0.7c-0.2,0-0.5,0.1-0.7,0.2
				c-1,0.3-2,1.1-2.6,1.9c-0.6,0.8-0.4,1.9-0.5,2.9c0,0.7-0.1,1.4-0.1,2.1c-0.1,0.7-0.8,1.8,0.1,2.2c1.9,0.8,2.5-1.3,3.6-2.4
				C44,29.7,44.9,29.2,45.8,28.8z"/>
			<path class="st2" d="M40.8,5.6c-0.4,0.6-0.7,1.5-0.9,2.1c-0.3,1.2,0.7,2.8,1.8,3.3c1,0.4,0.6,1.3,0.5,2.1
				c-0.3,1.2-0.7,2.3-0.7,3.6c0,1.3,0.1,2,1.6,2.1c0.6,0,1.3,0.1,1.6-0.6c0.3-0.8,0.1-1.7,0-2.5c-0.1-0.7,0-0.9,0.2-1.6
				c0.2-0.6,0.4-1.2,0.4-1.7c0-0.5-0.5-1.2-0.7-1.8c-0.2-0.5-0.1-0.5-0.2-1.2C43.3,7.9,42.1,6.7,40.8,5.6z"/>
			<path class="st2" d="M22.1,36.7c-0.8,0-1.4,0.4-2.1,0.6c-0.5,0.1-0.9,0.3-1.4,0.4c-0.4,0.1-0.8,0.2-1.1,0.4
				c-1.7,0.6-3.3,1.5-4.1,3.1c-0.3,0.6,2,0.7,2.2,0.8c1.2,0.1,2.3-0.2,3.5-0.4c1.2-0.2,2.4-0.2,3.6-0.4c1.1-0.2,1.8-0.8,2.1-1.9
				C25.1,37.7,23.4,36.8,22.1,36.7z"/>
			<path class="st2" d="M17.3,8.8c-0.2-0.1-0.6-0.4-0.9-0.4c-1.2,0.1-0.4,2.1,0,2.6c0.7,0.8,1.6,1.7,2.8,0.8
				c0.5-0.3,0.9,0.2,1.3,0.4c0.2,0.1,1.4,0.8,1.6,0.6c0.5-0.4,1.2-0.8,1.5-1.4c0.9-1.3,0.6-3.2,0.1-4.5c-0.5-1.4-2.1-2.6-3.4-3.2
				c-0.3-0.1-0.5-0.2-0.8-0.1c-1,0.1-1.6,1-1.3,1.9c0,0,0.3,1,0.9,1.8c0.5,0.8,0,0.9-0.1,1.3C19,9.1,17.6,8.8,17.3,8.8z"/>
		</g>
	</g>
	<g>
		<path class="st3" d="M5.6,40.8C10.2,46.4,17.2,50,25,50c13.8,0,25-11.2,25-25c0-5.6-1.8-10.8-5-15C38.4,20.3,22.1,42.3,5.6,40.8z"
			/>
		<path class="st3" d="M7.4,42.8C11.9,47.2,18.1,50,25,50c13.8,0,25-11.2,25-25c0-0.9-0.1-1.8-0.2-2.7C42.7,32.2,27.5,48.3,7.4,42.8
			z"/>
	</g>
	
		<linearGradient id="SVGID_1_" gradientUnits="userSpaceOnUse" x1="11.4263" y1="52.8806" x2="21.5147" y2="71.4444" gradientTransform="matrix(0.8183 -0.1424 0.1645 0.8356 -4.7784 -34.5612)">
		<stop  offset="0" style="stop-color:#FFFFFF"/>
		<stop  offset="1" style="stop-color:#FFFFFF;stop-opacity:0"/>
	</linearGradient>
	<path class="st4" d="M32.7,6.3c3.3,5.5-0.3,13.7-8,18.4C17,29.4,8,28.8,4.7,23.3c-3.3-5.5,0.3-13.7,8-18.4
		C20.4,0.2,29.4,0.8,32.7,6.3z"/>
	<path class="st5" d="M25.5,5.6c2,3.3-0.5,8.4-5.5,11.5C15,20.2,9.3,20,7.3,16.7c-2-3.3,0.5-8.4,5.5-11.5
		C17.9,2.2,23.6,2.4,25.5,5.6z"/>
</g>
</svg>
