<?xml version="1.0" encoding="utf-8"?>
<!-- Generator: Adobe Illustrator 25.1.0, SVG Export Plug-In . SVG Version: 6.00 Build 0)  -->
<svg version="1.1" id="Слой_1" xmlns="http://www.w3.org/2000/svg" xmlns:xlink="http://www.w3.org/1999/xlink" x="0px" y="0px"
	 viewBox="0 0 50 50" style="enable-background:new 0 0 50 50;" xml:space="preserve">
<style type="text/css">
	.st0{fill:#F58466;}
	.st1{fill:#E05B41;}
	.st2{fill:#FED09E;}
	.st3{opacity:0.2;fill:#212A3C;}
	.st4{opacity:0.3;fill:url(#SVGID_1_);}
	.st5{opacity:0.3;fill:#FFFFFF;}
</style>
<g>
	
		<ellipse transform="matrix(0.9995 -3.137176e-02 3.137176e-02 0.9995 -0.7719 0.7965)" class="st0" cx="25" cy="25" rx="25" ry="25"/>
	<g>
		<path class="st1" d="M29.7,36.5c-3.5,0-7.5-0.2-7.9,0c-0.4,0.2-1.9,1.2-5.3,1.2c-3.4,0-6.6-1.5-8.4-1.7c-1.5-0.2-4.5-0.8-5.9-0.8
			c2,4.5,5.2,8.3,9.3,10.9c3.7,0.1,7.8,0.2,9.8,0.1c2.8-0.1,12.9-0.6,18.7-0.9c3-2.2,5.5-5.1,7.2-8.4C43.5,36.7,32.6,36.5,29.7,36.5
			z"/>
		<path class="st1" d="M1.7,15.9h0.2c0,0,3.3,0.5,3.6,0.5c0.3,0,4.5,0,4.5,0l3.7-0.1l13.1-0.3l4.5-0.4c0,0,5.7-0.4,6.1-0.4
			c0.3,0,6.6,0.6,6.8,0.6c0.2,0,2.4-0.1,2.4-0.1l1.5-0.3c-0.8-1.9-1.8-3.7-3-5.3c-0.5,0-0.9-0.1-1.3-0.1c-1.2-0.2-3.5,0-4.7,0.1
			c-1.1,0.1-16.2,0-16.2,0s-1.2,0.2-1.5,0.2c-0.3,0-4.3-0.2-4.5-0.2c-0.2-0.1-2.9-0.3-3-0.4c-0.2,0-2.6-0.2-3-0.4
			c-0.4-0.2-1.5-0.2-1.5-0.2L5.3,9.6C3.8,11.5,2.6,13.6,1.7,15.9z"/>
	</g>
	<g>
		<path class="st2" d="M3.9,18h1.3l6.9-0.8c0,0,5.2-0.5,6.1-0.6c0.8-0.1,2.9-0.1,2.9-0.1s9.6-0.1,10.1-0.1c0.5,0,6.8-0.4,6.8-0.4
			s3.8,0.1,4.3,0.1c0.5,0,4.1,0.5,4.7,0.6c0.3,0.1,1.1,0.1,1.6,0.2c-0.2-0.7-0.5-1.4-0.8-2.1c-0.2,0-0.3,0-0.4,0c-0.6,0-2,0-2.5,0
			c-0.5,0-0.9,0-1.3,0s-6.5,0-6.5,0l-1.5-0.1c0,0-2.8-0.2-3.8-0.3c-1-0.1-2.7,0-3.2,0c-0.5,0-4,0-4.6,0c-0.6,0-6.8,0.2-7.4,0.3
			c-0.6,0.1-2.6,0.2-3.3,0.3c-0.7,0.1-2.2,0-3.1,0c-0.9,0-1.7,0.1-1.7,0.1l-3.1,0.3l-3.4,0c-0.3,0.6-0.5,1.2-0.7,1.9
			C2.4,17.7,3.9,18,3.9,18z"/>
		<path class="st2" d="M37.6,43.9c0,0-5.2,0.5-6.1,0.6c-0.8,0.1-2.9,0.1-2.9,0.1s-9.6,0.1-10.1,0.1c-0.5,0-6.8,0.4-6.8,0.4
			s-0.8,0-1.6,0c0.6,0.4,1.1,0.8,1.7,1.2c0.4,0,0.7,0,0.7,0l1.5,0.1c0,0,2.8,0.2,3.8,0.3c1,0.1,2.7,0,3.2,0c0.5,0,4,0,4.6,0
			c0.6,0,6.8-0.2,7.4-0.3c0.6-0.1,2.6-0.2,3.3-0.3c0.5-0.1,1.2,0,2,0c1.2-0.8,2.4-1.7,3.4-2.6L37.6,43.9z"/>
		<path class="st2" d="M45.9,35.8c-1.9,0-3.2,0-4,0c-0.8,0-3.4-0.1-5.7-0.2c-1.7-0.1-3.3-0.3-5-0.4c-1.6-0.1-3.1-0.2-4.7-0.3
			c-5.3-0.2-10.8-1.1-16.1-0.8c-2.9,0.1-5.7,0.2-8.6,0.3c0.1,0.4,0.3,0.7,0.5,1.1c0.3,0,0.6,0,0.7,0c0.3,0,1,0.2,2,0.4
			c1.4,0.2,2.9,0.4,4.3,0.9c2.7,0.9,5.4,2.4,8.4,2.1c1.2-0.1,2.5-0.2,3.6-0.5c2-0.6,3.9-1,5.9-1.1c2-0.1,4-0.1,6.1-0.1
			c0,0,2.4,0,3.4,0c1,0,4.7,0.2,5.6,0.2c0.8,0,2.4,0.2,2.9,0.3c0.4,0.1,1.1,0.1,1.4,0.2c0.4-0.7,0.8-1.3,1.1-2
			C47,35.8,46.4,35.8,45.9,35.8z M16.4,37.4c-1.2,0-2.2-0.5-2.2-1.1c0-0.6,1-1,2.2-0.9c1.2,0,2.2,0.5,2.2,1.1
			C18.7,37,17.7,37.4,16.4,37.4z"/>
		<path class="st2" d="M4.5,10.7c0.2,0,0.3,0,0.5,0c1.4-0.1,5.9,0,7,0c1.1,0,6.9,0.4,8.1,0.4c1.2,0,6.5,0.1,8.6,0.1s5.3,0.9,11.7,1
			c2.1,0,4.1,0,5.9-0.1c-1.1-1.9-2.5-3.7-4.1-5.2c0,0,0,0-0.1,0c-2.1-0.1-3.9,0.1-6,0.3c-3,0.3-6-0.2-9-0.4
			C22.5,6.5,17.3,6,12.4,6.5C10.8,6.6,9.2,6.8,7.6,7C6.5,8.2,5.4,9.4,4.5,10.7z M19.6,7.4c2.8,0.1,5.1,0.8,5.1,1.5
			c0,0.8-2.3,1.3-5.2,1.2c-2.8-0.1-5.1-0.8-5.1-1.5C14.4,7.9,16.7,7.3,19.6,7.4z"/>
		<path class="st2" d="M1.4,24.9c0.3,0,1.6,0.2,2.5,0.3c2.6,0.3,5.1,0.1,7.7,0.5c2.1,0.3,4.3,0.4,6.4,0.9c1.5,0.3,2.9,1,4.3,1.5
			c4,1.4,8.4,1.5,12.5,0.6c2-0.4,3.9-1.2,5.9-1.8c1.9-0.6,3.9-0.8,5.9-1c0,0,1.9,0,3.4,0c0-0.3,0-0.6,0-0.9c0-0.3,0-0.6,0-1
			c-2.1-0.2-4.2-0.2-6.4-0.3c-2.9-0.1-5.4-1.5-8.1-2.4c-2.1-0.7-4.4-1.3-6.6-1.3c-3.6-0.1-6.7,1.7-10.2,2.4c-2.6,0.5-5.3,0.3-8,0.3
			c-3.3,0-6.6,0-9.8,0c-0.3,0-0.5,0-0.8,0C0,23.4,0,24.2,0,24.9C0.7,24.9,1.3,24.9,1.4,24.9z M29.5,22.3c3.2,0.1,5.7,1.4,5.7,2.8
			c0,1.4-2.7,2.5-5.8,2.4c-3.2-0.1-5.7-1.4-5.7-2.8C23.7,23.3,26.3,22.2,29.5,22.3z"/>
	</g>
	<path class="st3" d="M5.3,40.4c5.8,7.4,15.4,11.2,25.2,9c13.5-3,22-16.4,18.9-29.8c-0.8-3.5-2.3-6.6-4.2-9.3
		C39.1,19.7,22.1,43.6,5.3,40.4z"/>
	<path class="st3" d="M6.6,41.9c5.8,6.4,14.8,9.5,23.9,7.5c12.7-2.8,20.9-14.9,19.3-27.5C43.1,31.6,27.5,49.1,6.6,41.9z"/>
	
		<linearGradient id="SVGID_1_" gradientUnits="userSpaceOnUse" x1="10.9188" y1="51.9437" x2="21.0062" y2="70.5055" gradientTransform="matrix(0.8183 -0.1424 0.1645 0.8356 -4.7784 -34.5612)">
		<stop  offset="0" style="stop-color:#FFFFFF"/>
		<stop  offset="1" style="stop-color:#FFFFFF;stop-opacity:0"/>
	</linearGradient>
	<path class="st4" d="M32.2,5.5c3.3,5.5-0.3,13.7-8,18.4c-7.7,4.7-16.7,4.1-20-1.4c-3.3-5.5,0.3-13.7,8-18.4
		C19.9-0.6,28.8,0.1,32.2,5.5z"/>
	<path class="st5" d="M25,4.9c2,3.3-0.5,8.4-5.5,11.5c-5,3.1-10.7,2.9-12.7-0.4c-2-3.3,0.5-8.4,5.5-11.5C17.3,1.5,23,1.7,25,4.9z"/>
</g>
</svg>
