<?xml version="1.0" encoding="utf-8"?>
<!-- Generator: Adobe Illustrator 25.1.0, SVG Export Plug-In . SVG Version: 6.00 Build 0)  -->
<svg version="1.1" id="Слой_1" xmlns="http://www.w3.org/2000/svg" xmlns:xlink="http://www.w3.org/1999/xlink" x="0px" y="0px"
	 viewBox="0 0 50 50" style="enable-background:new 0 0 50 50;" xml:space="preserve">
<style type="text/css">
	.st0{fill:#F7941E;}
	.st1{fill:#F15A29;}
	.st2{fill:#EA3232;}
	.st3{opacity:0.2;fill:#212A3C;}
	.st4{opacity:0.3;fill:url(#SVGID_1_);}
	.st5{opacity:0.3;fill:#FFFFFF;}
</style>
<g>
	<g>
		<path class="st0" d="M50,25c0,13.8-11.2,25-25,25C11.2,50,0,38.8,0,25S11.2,0,25,0C38.8,0,50,11.2,50,25z"/>
		<g>
			<path class="st1" d="M35.4,15.7c-2-0.9-2.4-1.7-4.6-1.5c-3.5,0.2-6.5,2.6-10.2,2.2c-3.9-0.4-6.9-2-10.9-1.1
				c-2.6,0.7-2.8,0.7-5.6,0.4c-0.7-0.1-1.4-0.2-2.2-0.2C0.7,18.4,0,21.6,0,25c0,13.8,11.2,25,25,25c13.8,0,25-11.2,25-25
				c0-3-0.5-6-1.5-8.7C44.5,18.3,39.7,17.9,35.4,15.7z"/>
		</g>
		<g>
			<path class="st2" d="M28.1,33.3C25.6,34.8,23,34.4,20,35c-6.1,1.1-8.3-3.7-13.7-4.6c-2-0.4-3.5-0.4-5.6-1.1
				c-0.1,0-0.3-0.1-0.4-0.1C2.3,41,12.6,50,25,50c13.8,0,25-11.2,25-25c0-0.1,0-0.2,0-0.3c-4.1,1-8.7,3.5-11.8,5
				C34.6,31.3,31.7,31.5,28.1,33.3z"/>
		</g>
		<path class="st1" d="M8,6.7c0.5-0.5,1-0.9,1.6-1.3c0.6,0,1.4,0,1.4,0s2.2,0,2.4,0c0.2,0,6-0.1,6-0.1s1.1-0.1,1.3-0.1
			c0.1,0,1.6,0.1,2.4,0.1c0.3,0,0.5,0,0.5,0c0,0-0.8,0-1.5,0.2c-0.7,0.1-1.5,0.3-1.8,0.4c-0.2,0-0.6,0-1,0c-0.4,0-1.1,0.1-1.6,0.3
			c-0.5,0.1-1.3,0.1-1.7,0.2c-0.4,0.1-0.9,0.1-1.8,0.2c-0.9,0-2.6,0.2-3.1,0.2c-0.5,0-1.5,0-1.8,0C9,6.7,8.6,6.7,8,6.7z"/>
		<path class="st1" d="M39.6,44.4c-1.4,0-4.5-0.4-7.3-0.4c-2.8,0-6.1,0.3-6.1,0.3s2.8,0.4,4.2,0.4c1.3,0,2.2,0,2.8,0
			c0.6,0,1.6,0.2,2.5,0.3c0.9,0,3.1,0,3.1,0s0.6,0,1.5-0.1c0.2-0.2,0.4-0.3,0.7-0.5C40.4,44.4,39.9,44.5,39.6,44.4z"/>
		<path class="st1" d="M41.1,12.4c-0.2,0-1.1,0.1-1.8,0.2c-0.7,0.1-1.5,0-1.5,0c0,0,0.2,0,0.5,0.1c0.8,0.1,2.2,0.3,2.3,0.3
			c0.2,0,1.3,0,1.3,0s3.7,0.3,5.2,0.5c-0.2-0.4-0.4-0.8-0.6-1.2c-0.5,0-0.8,0-1.1,0c-0.4,0-1.2-0.1-1.7,0c-0.5,0.1-1.2,0.1-1.6,0.1
			C41.7,12.4,41.3,12.4,41.1,12.4z"/>
		<path class="st1" d="M17.2,9.3c0,0,2.2,0.4,3.2,0.4c1,0,1.7,0,2.2,0c0.5,0,1.2,0.2,1.9,0.3c0.7,0,2.3,0,2.3,0s3.2-0.2,4.2-0.4
			c1.1-0.1,1.7-0.1,2.6-0.1c0.9-0.1,1,0,2,0c0.9,0,1.3,0.1,2.1,0.1c0.8,0,1,0,1.9,0c0.9,0,1.1-0.1,1.4-0.1c0.3,0,0.6,0,0.9-0.1
			c0.3-0.1-0.5-0.2-0.5-0.2s-1,0-1.1,0c-0.1,0-0.3,0-0.6,0c-0.3,0-0.8,0-0.8,0s-3.7-0.3-3.8-0.3c-0.1,0-3.7,0-4.1,0
			c-0.4,0-2.5,0.7-3.5,0.6c-1,0-3.4-0.4-5.6-0.4C19.7,9,17.2,9.3,17.2,9.3z"/>
		<g>
			<path class="st0" d="M49.8,21.8c-0.8-0.1-2-0.2-2-0.2c-0.1,0-2.7,0.1-3,0.1c-0.3,0-1.7,0.8-2.5,0.8c-0.7,0-2.5-0.4-4-0.3
				c-1.5,0.1-3.3,0.4-3.3,0.4s1.6,0.4,2.3,0.4c0.7,0,1.2,0,1.5-0.1c0.3,0,0.9,0.3,1.4,0.3c0.5,0,1.7-0.1,1.7-0.1s2.3-0.4,3-0.6
				c0.8-0.2,1.2-0.1,1.9-0.2c0.6-0.1,0.7-0.1,1.4-0.1c0.7,0,0.9,0.1,1.5,0.1c0.1,0,0.1,0,0.2,0C49.8,22.2,49.8,22,49.8,21.8z"/>
			<path class="st0" d="M6.2,21.5c0,0,2.2,0.4,3.2,0.4c1,0,1.7,0,2.2,0c0.5,0,1.2,0.2,1.9,0.3c0.7,0,2.3,0,2.3,0s3.2-0.2,4.2-0.4
				c1.1-0.1,1.7-0.1,2.6-0.1c0.9-0.1,1,0,2,0c0.9,0,1.2,0.1,2.1,0.1c0.8,0,1,0,1.9,0c0.9,0,1.1-0.1,1.4-0.1s0.6,0,0.9-0.1
				c0.3-0.1-0.5-0.2-0.5-0.2s-1,0-1.1,0c-0.1,0-0.3,0-0.6,0c-0.3,0-0.8,0-0.8,0S24.1,21,24,21c-0.1,0-3.7,0-4.1,0
				c-0.4,0-2.5,0.7-3.5,0.6c-1,0-3.4-0.4-5.6-0.4C8.7,21.2,6.2,21.5,6.2,21.5z"/>
			<path class="st0" d="M27,29.6c0.6,0,0.8,0.1,1.3,0.1c0.5,0,0.6,0,1.2,0c0.6,0,0.7-0.1,0.9-0.1c0.2,0,0.4,0,0.6-0.1
				c0.2-0.1-0.3-0.2-0.3-0.2s-0.6,0-0.7,0c-0.1,0-0.2,0-0.3,0c-0.2,0-0.5,0-0.5,0S26.7,29,26.7,29c-0.1,0-2.3,0-2.5,0
				s-1.5,0.7-2.2,0.6c-0.6,0-2.1-0.4-3.4-0.4c-1.3,0-2.9,0.3-2.9,0.3s1.3,0.4,1.9,0.4c0.6,0,1,0,1.3,0c0.3,0,0.7,0.2,1.2,0.3
				c0.4,0,1.4,0,1.4,0s1.9-0.2,2.6-0.4c0.7-0.1,1.1-0.1,1.6-0.1C26.3,29.6,26.4,29.6,27,29.6z"/>
		</g>
		<path class="st1" d="M30,39.5c1.2-0.1,1.4,0,2.6,0c1.2,0,1.6,0.1,2.7,0.1c1.1,0,1.3,0,2.5,0c1.2,0,1.5-0.1,1.9-0.1
			c0.4,0,0.8,0,1.2-0.1c0.4-0.1-0.7-0.2-0.7-0.2s-1.3,0-1.5,0c-0.2,0-0.4,0-0.7,0c-0.4,0-1.1,0-1.1,0s-4.9-0.3-5-0.3
			c-0.1,0-4.9,0-5.4,0c-0.5,0-3.2,0.7-4.6,0.6c-1.4,0-4.5-0.4-7.3-0.4c-2.8,0-6.1,0.3-6.1,0.3s2.8,0.4,4.1,0.4c1.3,0,2.2,0,2.8,0
			c0.6,0,1.5,0.2,2.5,0.3c0.9,0,3.1,0,3.1,0s4.1-0.2,5.6-0.4C28,39.5,28.8,39.6,30,39.5z"/>
		<path class="st1" d="M47.6,33.1c-0.9,0.1-1.3,0.2-1.7,0.3c-0.4,0.1-1.2,0.1-1.7,0.3c-0.5,0.2-1.1,0.3-1.6,0.4
			c-0.4,0.1-0.8,0-1,0.1c-0.2,0.1-1.1,0.3-1.7,0.5c-0.7,0.2-1.5,0.3-1.5,0.3c0,0,0.2,0,0.5,0c0.8,0,2.2,0,2.4,0
			c0.2,0,1.3-0.2,1.3-0.2s4.6-0.3,5.7-0.4c0.2-0.4,0.3-0.8,0.4-1.2C48.3,33,47.9,33.1,47.6,33.1z"/>
		<path class="st1" d="M14.5,45.2c0.4,0,0.8,0,1,0c0.2,0,1.1-0.2,1.8-0.3c0.7-0.1,1.5-0.1,1.5-0.1c0,0-0.2,0-0.5,0
			c-0.8-0.1-2.2-0.2-2.4-0.2c-0.2,0-1.3,0.1-1.3,0.1s-3.8-0.1-5.4-0.2c0.5,0.4,1,0.7,1.5,1.1c0.2,0,0.3,0,0.5-0.1
			c0.4-0.1,1.2,0,1.7-0.1C13.4,45.3,14.1,45.2,14.5,45.2z"/>
	</g>
	<g>
		<path class="st3" d="M45.4,10.5c-7.6,11-23.2,30.3-39.2,31C10.8,46.7,17.5,50,25,50c13.8,0,25-11.2,25-25
			C50,19.6,48.3,14.6,45.4,10.5z"/>
		<path class="st3" d="M50,24.2c-7.9,10-22.3,23.3-40.6,20.3C13.7,47.9,19.1,50,25,50c13.8,0,25-11.2,25-25C50,24.7,50,24.5,50,24.2
			z"/>
	</g>
	
		<linearGradient id="SVGID_1_" gradientUnits="userSpaceOnUse" x1="12.3128" y1="57.5634" x2="23.8226" y2="78.7426" gradientTransform="matrix(0.8203 -0.1306 0.1524 0.8378 -5.4202 -38.1044)">
		<stop  offset="0" style="stop-color:#FFFFFF"/>
		<stop  offset="1" style="stop-color:#FFFFFF;stop-opacity:0"/>
	</linearGradient>
	<path class="st4" d="M35.7,6.9c3.7,6.3-0.5,15.7-9.4,20.9C17.3,33,7.1,32.1,3.4,25.8c-3.7-6.3,0.5-15.7,9.4-20.9
		C21.7-0.3,32,0.5,35.7,6.9z"/>
	<path class="st5" d="M27.5,6c2.2,3.8-0.7,9.6-6.5,13c-5.8,3.4-12.3,3.1-14.5-0.6c-2.2-3.8,0.7-9.6,6.5-13C18.8,2,25.3,2.3,27.5,6z"
		/>
</g>
</svg>
