<?xml version="1.0" encoding="utf-8"?>
<!-- Generator: Adobe Illustrator 25.1.0, SVG Export Plug-In . SVG Version: 6.00 Build 0)  -->
<svg version="1.1" id="Слой_1" xmlns="http://www.w3.org/2000/svg" xmlns:xlink="http://www.w3.org/1999/xlink" x="0px" y="0px"
	 viewBox="0 0 50 50" style="enable-background:new 0 0 50 50;" xml:space="preserve">
<style type="text/css">
	.st0{fill:#F15A29;}
	.st1{fill:#F7941E;}
	.st2{fill:#EF4136;}
	.st3{opacity:0.3;fill:#414042;}
	.st4{opacity:0.2;fill:#212A3C;}
	.st5{opacity:0.3;fill:url(#SVGID_1_);}
	.st6{opacity:0.3;fill:#FFFFFF;}
</style>
<g>
	<g>
		<g>
			<circle class="st0" cx="25" cy="25" r="25"/>
			<path class="st1" d="M3.7,11.9c10.2-0.1,25.5-1.1,38.5-5c2.7,2.5,4.8,5.7,6.1,9.2c-8.7,2.6-26.2,6.6-48.1,5.8
				C0.7,18.2,1.9,14.8,3.7,11.9z"/>
			<path class="st2" d="M0,25.4c0,1.1,0.1,2.2,0.3,3.3c23.3,1.8,42.6-2.8,49.7-4.8c-0.1-1.6-0.3-3.1-0.6-4.5
				C32.5,25,8.9,25.4,0,25.4z"/>
			<g>
				<path class="st1" d="M47.4,36c1.3-2.6,2.1-5.5,2.4-8.5c-18.4,4.6-38.1,5-48.8,4.8c1,3.4,2.8,6.5,5,9.1C6,41.2,5.8,41,5.6,40.8
					C18.3,40.1,33.2,38.7,47.4,36z"/>
			</g>
		</g>
		<path class="st2" d="M47.4,36C47.4,36,47.4,36,47.4,36c-14.3,2.7-29.2,4.1-41.8,4.8C5.8,41,6,41.2,6.1,41.4
			c0.2,0.2,0.4,0.5,0.6,0.7c0.2,0.2,0.4,0.4,0.6,0.6c0.3,0.3,0.5,0.5,0.8,0.8c0.3,0.2,0.5,0.5,0.8,0.7c0.3,0.2,0.6,0.5,0.8,0.7
			c0.2,0.2,0.4,0.3,0.6,0.4c0.3,0.2,0.6,0.4,0.9,0.6c0.2,0.1,0.3,0.2,0.5,0.3c0.4,0.3,0.9,0.5,1.4,0.8c0.2,0.1,0.4,0.2,0.6,0.3
			c0.4,0.2,0.7,0.4,1.1,0.5c0.2,0.1,0.3,0.2,0.5,0.2c0.5,0.2,1,0.4,1.6,0.6c0.2,0.1,0.3,0.1,0.5,0.2c0.4,0.1,0.9,0.3,1.3,0.4
			c0.2,0,0.3,0.1,0.5,0.1c0.6,0.1,1.1,0.3,1.7,0.4c0.1,0,0.2,0,0.3,0c0.5,0.1,1,0.1,1.5,0.2c0.2,0,0.3,0,0.5,0
			c0.6,0,1.2,0.1,1.9,0.1c0.5,0,1.1,0,1.6-0.1c0.1,0,0.3,0,0.4,0c0.5,0,1.1-0.1,1.6-0.2c0,0,0.1,0,0.1,0c0.5-0.1,1-0.2,1.5-0.3
			c0.1,0,0.2,0,0.4-0.1c0.5-0.1,1-0.2,1.5-0.4c0,0,0.1,0,0.1,0c0.5-0.1,0.9-0.3,1.4-0.5c0.1,0,0.2-0.1,0.3-0.1
			c0.5-0.2,1-0.4,1.5-0.6c0,0,0.1,0,0.1,0c0.5-0.2,0.9-0.4,1.3-0.7c0.1,0,0.1-0.1,0.2-0.1c0.5-0.3,0.9-0.5,1.4-0.8c0,0,0,0,0.1,0
			c0.4-0.3,0.9-0.6,1.3-0.9c0,0,0.1-0.1,0.1-0.1c0.4-0.3,0.9-0.7,1.3-1c0,0,0,0,0,0c0.4-0.4,0.8-0.7,1.2-1.1c0,0,0,0,0,0
			c0.4-0.4,0.8-0.8,1.2-1.2c0,0,0,0,0,0C45.1,40,46.4,38.1,47.4,36z"/>
		<path class="st3" d="M33.1,6c0.1,0.7-2.8,1.8-6.5,2.3c-3.7,0.5-6.8,0.3-6.9-0.4c-0.1-0.7,2.9-1.3,6.6-1.8C30,5.5,33,5.2,33.1,6z"
			/>
		<path class="st3" d="M21.7,4.4c0.1,0.5-1.8,1.2-4.3,1.5C15,6.2,13,6.1,12.9,5.6c-0.1-0.5,1.9-0.8,4.3-1.2
			C19.7,4.1,21.6,3.9,21.7,4.4z"/>
		<path class="st3" d="M17.3,18.3c0,0.7-3,1.5-6.7,1.7c-3.7,0.2-6.8-0.3-6.8-1c0-0.7,3-1,6.7-1.2C14.2,17.6,17.3,17.6,17.3,18.3z"/>
		<path class="st3" d="M40.2,41.6c0.1,0.7-2.8,1.8-6.5,2.5c-3.7,0.6-6.8,0.5-6.9-0.2c-0.1-0.7,2.8-1.4,6.5-2
			C37,41.2,40,40.8,40.2,41.6z"/>
		<path class="st3" d="M29.9,13.4c0.1,0.5-1.8,1.1-4.1,1.4c-2.3,0.3-4.3,0.2-4.3-0.3c-0.1-0.5,1.8-0.8,4.1-1.1
			C27.9,13.1,29.8,12.9,29.9,13.4z"/>
		<path class="st3" d="M22.2,35.2c0.1,0.5-1.8,1.1-4.1,1.4c-2.3,0.3-4.3,0.1-4.3-0.4c-0.1-0.5,1.8-0.8,4.1-1
			C20.3,34.8,22.2,34.7,22.2,35.2z"/>
		<path class="st3" d="M45,13.6c0.1,0.6-2,1.5-4.7,2.2c-2.7,0.6-5.1,0.7-5.2,0.1c-0.1-0.6,2.1-1.2,4.8-1.8
			C42.6,13.4,44.9,13,45,13.6z"/>
		<path class="st3" d="M41.9,23.8c0.1,0.6-2.2,1.5-5.1,2.1c-2.9,0.6-5.4,0.5-5.5-0.1c-0.1-0.6,2.2-1.1,5.2-1.7
			C39.4,23.6,41.7,23.2,41.9,23.8z"/>
	</g>
	<g>
		<path class="st4" d="M45.1,10.2C37.2,21.4,22.1,39.7,6.4,41.7C10.9,46.8,17.6,50,25,50c13.8,0,25-11.2,25-25
			C50,19.4,48.2,14.3,45.1,10.2z"/>
		<path class="st4" d="M50,24.5c-8.1,9.9-21.9,22.4-39.5,20.9C14.6,48.3,19.6,50,25,50c13.8,0,25-11.2,25-25
			C50,24.8,50,24.6,50,24.5z"/>
	</g>
	
		<linearGradient id="SVGID_1_" gradientUnits="userSpaceOnUse" x1="12.3937" y1="56.7617" x2="22.8169" y2="75.9414" gradientTransform="matrix(0.8203 -0.1306 0.1524 0.8378 -5.4202 -38.1044)">
		<stop  offset="0" style="stop-color:#FFFFFF"/>
		<stop  offset="1" style="stop-color:#FFFFFF;stop-opacity:0"/>
	</linearGradient>
	<path class="st5" d="M33.5,6.3c3.4,5.7-0.5,14.2-8.5,18.9c-8.1,4.7-17.3,4-20.7-1.8C1,17.8,4.8,9.3,12.8,4.6
		C20.9-0.2,30.2,0.6,33.5,6.3z"/>
	<path class="st6" d="M26.1,5.6c2,3.4-0.6,8.7-5.9,11.8C15,20.4,9.1,20.2,7.1,16.8C5.1,13.4,7.7,8.1,13,5
		C18.2,1.9,24.1,2.2,26.1,5.6z"/>
</g>
</svg>
