<?xml version="1.0" encoding="utf-8"?>
<!-- Generator: Adobe Illustrator 25.1.0, SVG Export Plug-In . SVG Version: 6.00 Build 0)  -->
<svg version="1.1" id="Слой_1" xmlns="http://www.w3.org/2000/svg" xmlns:xlink="http://www.w3.org/1999/xlink" x="0px" y="0px"
	 viewBox="0 0 50 50" style="enable-background:new 0 0 50 50;" xml:space="preserve">
<style type="text/css">
	.st0{fill:#E6E7E8;}
	.st1{fill:#D1D3D4;}
	.st2{fill:#A7A9AC;}
	.st3{opacity:0.1;fill:#212A3C;}
	.st4{opacity:0.5;fill:url(#SVGID_1_);}
	.st5{opacity:0.3;fill:#FFFFFF;}
</style>
<g>
	<g>
		<ellipse transform="matrix(0.9732 -0.2298 0.2298 0.9732 -5.0751 6.4126)" class="st0" cx="25" cy="25" rx="25" ry="25"/>
		<g>
			<path class="st1" d="M28,32.2c0,3.4,2.8,6.2,6.2,6.2s6.2-2.8,6.2-6.2c0-3.4-2.8-6.2-6.2-6.2S28,28.8,28,32.2z"/>
			<path class="st2" d="M39.7,13.5c0-1.9-1.5-3.5-3.5-3.5c-1.9,0-3.5,1.5-3.5,3.5c0,1.9,1.5,3.5,3.5,3.5
				C38.1,17,39.7,15.4,39.7,13.5z"/>
			<path class="st1" d="M42,27c0,3.8,2.4,7,5.8,8.3C49.2,32.2,50,28.7,50,25c0-2.3-0.3-4.5-0.9-6.6C45.1,19.2,42,22.8,42,27z"/>
			<path class="st1" d="M8.2,31.3c0-0.8-0.6-1.4-1.4-1.4c-0.8,0-1.4,0.6-1.4,1.4c0,0.8,0.6,1.4,1.4,1.4C7.6,32.7,8.2,32.1,8.2,31.3z
				"/>
			<path class="st1" d="M41.1,20.9c0-0.8-0.6-1.4-1.4-1.4c-0.8,0-1.4,0.6-1.4,1.4c0,0.8,0.6,1.4,1.4,1.4
				C40.4,22.3,41.1,21.7,41.1,20.9z"/>
			<path class="st1" d="M9.7,37.6c0,1.9,1.5,3.5,3.5,3.5c1.9,0,3.5-1.5,3.5-3.5s-1.6-3.5-3.5-3.5C11.2,34.2,9.7,35.7,9.7,37.6z"/>
			<path class="st1" d="M23,8.3c0,1.2,1,2.2,2.2,2.2c1.2,0,2.2-1,2.2-2.2c0-1.2-1-2.2-2.2-2.2C24,6.1,23,7,23,8.3z"/>
			<path class="st2" d="M33.2,48.6c-0.7-4.2-4.3-7.3-8.7-7.3c-4.2,0-7.8,3-8.6,7c2.8,1.1,5.9,1.7,9.1,1.7
				C27.9,50,30.6,49.5,33.2,48.6z"/>
			<path class="st2" d="M10.9,24.4c2.6,0,4.7-2.1,4.7-4.7c0-2.6-2.1-4.7-4.7-4.7c-2.6,0-4.7,2.1-4.7,4.7
				C6.2,22.3,8.3,24.4,10.9,24.4z"/>
			<path class="st1" d="M25.5,20.2c0-0.8-0.6-1.4-1.4-1.4c-0.8,0-1.4,0.6-1.4,1.4c0,0.8,0.6,1.4,1.4,1.4
				C24.8,21.6,25.5,21,25.5,20.2z"/>
			<path class="st1" d="M21,30.1c-1.2,0-2.2,1-2.2,2.2c0,1.2,1,2.2,2.2,2.2c1.2,0,2.2-1,2.2-2.2C23.2,31.1,22.3,30.1,21,30.1z"/>
		</g>
	</g>
	<g>
		<path class="st3" d="M45.2,10.3C38.3,20.8,22.8,41.4,6.6,42c4.6,4.9,11.1,8,18.4,8c13.8,0,25-11.2,25-25
			C50,19.5,48.2,14.4,45.2,10.3z"/>
		<path class="st3" d="M50,23.5c-7.3,9.9-21.6,24.3-40.3,21.3C13.9,48,19.2,50,25,50c13.8,0,25-11.2,25-25C50,24.5,50,24,50,23.5z"
			/>
	</g>
	
		<linearGradient id="SVGID_1_" gradientUnits="userSpaceOnUse" x1="11.7891" y1="52.6235" x2="21.8127" y2="71.068" gradientTransform="matrix(0.8183 -0.1424 0.1645 0.8356 -4.7784 -34.5612)">
		<stop  offset="0" style="stop-color:#FFFFFF"/>
		<stop  offset="1" style="stop-color:#FFFFFF;stop-opacity:0"/>
	</linearGradient>
	<path class="st4" d="M32.9,6c3.3,5.4-0.3,13.6-7.9,18.3C17.2,29,8.3,28.4,5,22.9C1.7,17.5,5.3,9.3,12.9,4.6
		C20.6-0.1,29.6,0.6,32.9,6z"/>
	<path class="st5" d="M25.7,5.4c2,3.3-0.5,8.4-5.5,11.4c-5,3-10.7,2.9-12.6-0.4c-2-3.3,0.5-8.4,5.5-11.4C18.1,2,23.7,2.1,25.7,5.4z"
		/>
</g>
</svg>
