<?xml version="1.0" encoding="utf-8"?>
<!-- Generator: Adobe Illustrator 25.1.0, SVG Export Plug-In . SVG Version: 6.00 Build 0)  -->
<svg version="1.1" id="Слой_1" xmlns="http://www.w3.org/2000/svg" xmlns:xlink="http://www.w3.org/1999/xlink" x="0px" y="0px"
	 viewBox="0 0 50 50" style="enable-background:new 0 0 50 50;" xml:space="preserve">
<style type="text/css">
	.st0{fill:#196EA5;}
	.st1{fill:#27AAE1;}
	.st2{fill:#5FB2E0;}
	.st3{fill:#A4DBF4;}
	.st4{fill:#0E577F;}
	.st5{opacity:0.2;fill:#212A3C;}
	.st6{opacity:0.3;fill:url(#SVGID_1_);}
	.st7{opacity:0.3;fill:#FFFFFF;}
</style>
<g>
	<g>
		<g>
			<path class="st0" d="M50,25.4C49.8,39.2,38.4,50.2,24.6,50C10.8,49.8-0.2,38.4,0,24.6C0.2,10.8,11.6-0.2,25.4,0
				C39.2,0.2,50.2,11.6,50,25.4z"/>
			<g>
				<path class="st1" d="M49.9,23.2c-1.9,0.1-3.8,0-5.6-0.4c-3.1-0.8-6-2.5-9.1-3.3c-4.3-1-8.8-1.1-13.2-0.7
					c-4.3,0.4-8.3,2.3-12.6,2.7c-3,0.3-6.1,0.2-9.1,0c-0.1,1-0.2,2.1-0.2,3.1c0,0.5,0,1.1,0,1.6c1.3,0,2.6,0,4,0.1
					c6.6,0.1,12.9,2.4,19.5,3.1c4.5,0.5,9,0.2,13.5-0.2c1.9-0.2,3.5-1.4,5.5-1.5c1.6-0.2,3.3-0.2,4.9-0.2c0.2,0,1.3,0,2.6,0
					c0.1-0.7,0.1-1.4,0.1-2C50,24.6,50,23.9,49.9,23.2z"/>
				<path class="st1" d="M48.1,34.5c-1.1,0.2-2.7,0.5-3.3,0.8c-1.1,0.5-4.7,1-5.7,1.4c-1.1,0.3-2.7,0.1-2.7,0.1s-7.7-0.1-8.1-0.1
					c-0.4,0-4.8-0.8-5.8-1.4c-1.1-0.6-3.7-0.8-3.7-0.8l-8.6-1.3L1.7,34c0.9,2.3,2.1,4.4,3.6,6.4c2.6,0.1,5.1,0.4,6.5,0.5
					c1.5,0,4.6,0.4,6.2,0.8c1.6,0.4,2.9,0.2,3.6,0.2c0.7,0,6.7-0.1,12.1-0.3c5.5-0.2,3.2,0,4.3-0.2c1.1-0.2,2.8,0,4.1,0.1
					c1,0,1.4,0,1.9,0C45.7,39.3,47.1,37,48.1,34.5z"/>
				<path class="st1" d="M3.4,12.3c3.9-1.1,10.3-2.2,16.4-0.5c9.8,2.6,12.6,2,16.1,1.3c3.5-0.7,5.6-0.8,6.4-0.8c0.4,0,2.5,0,4.2,0.1
					C45.4,10.4,44,8.6,42.4,7c-0.5-0.1-1-0.1-1.4-0.1c-1.2,0-3.3-0.2-5.3-0.3c-2-0.2-6-0.7-6.6-0.7c-0.7,0-0.7-0.1-3.3-0.3
					c-2.7-0.2-7-1-8.9-1.2c-1.8-0.2-3.1-0.5-5-0.6C8.4,5.9,5.5,8.9,3.4,12.3z"/>
			</g>
			<path class="st2" d="M37.8,24.3c0,2-4.4,3.5-9.7,3.5c-5.3-0.1-9.6-1.7-9.6-3.7c0-2,4.4-3.5,9.7-3.5
				C33.6,20.7,37.9,22.3,37.8,24.3z"/>
			<path class="st3" d="M33.6,24.3c0,1.1-2.4,2-5.4,1.9c-3,0-5.4-1-5.4-2.1c0-1.1,2.4-2,5.4-1.9C31.2,22.2,33.6,23.2,33.6,24.3z"/>
			<path class="st2" d="M35.7,10c0,1.2-2.7,2.1-5.9,2c-3.2-0.1-5.8-1.2-5.8-2.4c0-1.2,2.7-2.1,5.9-2C33.1,7.7,35.7,8.8,35.7,10z"/>
			<path class="st3" d="M33.1,9.9c0,0.7-1.5,1.2-3.3,1.1c-1.8-0.1-3.2-0.7-3.2-1.3c0-0.7,1.5-1.2,3.3-1.1
				C31.7,8.6,33.1,9.2,33.1,9.9z"/>
			<path class="st3" d="M15.6,7.9c0,0.5-1.2,0.9-2.6,0.9c-1.4-0.1-2.5-0.5-2.5-1c0-0.5,1.2-0.9,2.6-0.9C14.5,6.9,15.6,7.4,15.6,7.9z
				"/>
			<path class="st2" d="M12.4,24.5c0,0.6-2.2,1.1-4.9,1c-2.7,0-4.8-0.6-4.8-1.2c0-0.6,2.2-1.1,4.9-1C10.2,23.3,12.4,23.8,12.4,24.5z
				"/>
			<path class="st2" d="M42.5,39c0,0.5-1.9,0.9-4.3,0.9c-2.4,0-4.3-0.5-4.3-1c0-0.5,1.9-0.9,4.3-0.9C40.6,38,42.5,38.4,42.5,39z"/>
			<path class="st3" d="M21.5,37.8c0,0.7-2.7,1.3-6,1.2c-3.3-0.1-6-0.8-6-1.5c0-0.7,2.7-1.3,6-1.2C18.9,36.3,21.6,37,21.5,37.8z"/>
		</g>
		<path class="st4" d="M49.3,31c-0.1,0.5-0.3,1.1-0.4,1.6c-0.7,0-1.4,0-2.1,0c-1.6,0.1-3,0.6-4.6,0.8c-2.1,0.3-4.5,0.6-6.6,0.6
			c-1.5,0-2.9-0.2-4.4-0.3c-1.2-0.1-2.6,0-3.8-0.3c-2.4-0.6-4.9-1-7.3-1.3c-3-0.4-6.1-1-9.1-1.2c-2.1-0.2-4.2-0.3-6.3-0.3
			c-1.2,0-2.4,0-3.7,0c-0.1,0-0.2,0-0.3,0c-0.1-0.3-0.1-0.6-0.2-0.9c2.1,0,4.3,0.3,6.3,0.4c4.1,0.3,8.3,0.6,12.4,0.8
			c2.2,0.1,4.2,0.6,6.3,0.9c1.5,0.2,2.9,0.4,4.4,0.4c2.4-0.1,4.7,0,7.1,0.1c2.2,0.1,4.3-0.2,6.5-0.2C45.4,32,47.3,31.5,49.3,31z
			 M8.3,16.6c1.7-0.2,3.2-0.5,5-0.5c3.2,0.1,6.4,0.1,9.5,0.2c4.9,0.1,9.9-0.4,14.8,0.4c1.7,0.3,3.3,0.9,5,1c2,0.2,4.3-0.4,6.2,0.1
			c0.1,0,0.1,0,0.2,0c-0.2-0.6-0.4-1.3-0.6-1.9c-5.5,0.1-11-0.3-16.4-0.8c-2.9-0.3-5.7-0.7-8.6-0.9c-5.8-0.3-11.7-0.2-17.5-0.2
			c-1.1,0-2.2,0-3.3-0.1c-0.6,1.2-1.1,2.5-1.5,3.8C3.5,17.5,5.9,17,8.3,16.6z M17.4,1.2l3.9,0.9c0,0,2.7,0.1,3,0.1
			c0.3,0,4.3,0.5,4.7,0.5c0.4,0.1,3.8,0.9,4.1,0.9c0.3,0,2.4,0.2,2.9,0.2c0.4,0,2,0.1,2.7,0.2c-3.8-2.5-8.4-4-13.3-4.1
			C22.6,0,19.9,0.4,17.4,1.2z M30.6,44c-0.2,0-2.2,0.2-2.5,0.2c-0.3,0.1-3.2,0.6-3.2,0.6s-3.1-0.2-3.3-0.2c-0.2,0-2.9,0-3.7-0.1
			c-0.8-0.1-5.8-0.6-5.8-0.6l-3.6-0.1c4.3,3.8,9.9,6.1,16.1,6.1c6.1,0.1,11.7-2,16-5.5c0,0,0,0,0,0s-3.5-0.3-3.7-0.3
			c-0.2,0-2.7,0-3.1,0C33.6,44.1,30.8,44,30.6,44z"/>
	</g>
	<g>
		<path class="st5" d="M45.4,10.5C38.1,21.2,22,41.5,5.8,41c4.5,5.4,11.2,8.8,18.8,9C38.4,50.2,49.8,39.2,50,25.4
			C50.1,19.8,48.3,14.7,45.4,10.5z"/>
		<path class="st5" d="M50,23.6c-7.7,10-22.5,24.3-41.6,20c4.3,3.9,10,6.3,16.3,6.4C38.4,50.2,49.8,39.2,50,25.4
			C50,24.8,50,24.2,50,23.6z"/>
	</g>
	
		<linearGradient id="SVGID_1_" gradientUnits="userSpaceOnUse" x1="12.2419" y1="56.2305" x2="23.2551" y2="76.4959" gradientTransform="matrix(0.8203 -0.1306 0.1524 0.8378 -5.4202 -38.1044)">
		<stop  offset="0" style="stop-color:#FFFFFF"/>
		<stop  offset="1" style="stop-color:#FFFFFF;stop-opacity:0"/>
	</linearGradient>
	<path class="st6" d="M34.5,5.8c3.5,6-0.5,15-9,20C16.9,30.8,7.1,30,3.6,24c-3.5-6,0.5-15,9-20S30.9-0.2,34.5,5.8z"/>
	<path class="st7" d="M26.6,5c2.1,3.6-0.7,9.2-6.2,12.4c-5.6,3.3-11.8,3-13.9-0.6c-2.1-3.6,0.7-9.2,6.2-12.4
		C18.3,1.2,24.5,1.4,26.6,5z"/>
</g>
</svg>
