<?xml version="1.0" encoding="utf-8"?>
<!-- Generator: Adobe Illustrator 25.1.0, SVG Export Plug-In . SVG Version: 6.00 Build 0)  -->
<svg version="1.1" id="Слой_1" xmlns="http://www.w3.org/2000/svg" xmlns:xlink="http://www.w3.org/1999/xlink" x="0px" y="0px"
	 viewBox="0 0 100 50" style="enable-background:new 0 0 100 50;" xml:space="preserve">
<style type="text/css">
	.st0{fill:#FFF4E9;}
	.st1{fill:#DB8231;}
	.st2{fill:#FED09E;}
	.st3{fill:#FFE1C5;}
	.st4{fill:#F9B673;}
	.st5{opacity:0.2;fill:#212A3C;}
	.st6{opacity:0.5;fill:url(#SVGID_1_);}
	.st7{opacity:0.4;fill:#FFFFFF;}
</style>
<g>
	<path class="st0" d="M48.8,15C21.2,18.2-0.7,25.9,0,32.2c0.7,6.3,23.6,8.9,51.2,5.7C78.8,34.7,100.7,27,100,20.7
		C99.3,14.4,76.4,11.8,48.8,15z M50.6,36.2c-19.5,2.2-40.5,1.3-41.2-5C8.8,25,29.1,19.3,48.5,17C68,14.8,89,15.8,89.7,22
		C90.4,28.2,70.1,34,50.6,36.2z M49.1,18.1c-20.2,2.3-36.1,8-35.6,12.6c0.5,4.6,17.3,6.5,37.5,4.1c20.2-2.3,36.1-8,35.6-12.6
		C86.1,17.6,69.3,15.8,49.1,18.1z M50.4,33.6c-14.2,1.6-29.6,0.9-30.1-3.6c-0.5-4.6,14.4-8.8,28.6-10.4c14.2-1.6,29.6-0.9,30.1,3.6
		C79.5,27.7,64.7,32,50.4,33.6z"/>
	<g>
		<ellipse class="st1" cx="72.2" cy="32.9" rx="0.6" ry="0.3"/>
		<g>
			<path class="st2" d="M77.1,25c0,13.8-12,25-26.9,25c-14.8,0-26.9-11.2-26.9-25c0-13.8,12-25,26.9-25C65.1,0,77.1,11.2,77.1,25z"
				/>
			<g>
				<path class="st1" d="M46.1,43.2c-2.7-0.6-5.2-0.3-7.8,0.4c-2,0.5-4.2-0.6-6.4-0.3c4.8,4.1,11.2,6.7,18.3,6.7
					c5.2,0,10-1.4,14.1-3.7c-0.3-0.1-0.7-0.2-1-0.3c-2.6-0.7-5.6-0.7-8.3-1.1C52,44.4,49.1,43.9,46.1,43.2z"/>
				<path class="st1" d="M67,27.9c-1.3-0.4-2.5-1-3.8-1.3c-1.5-0.4-3.3-0.3-4.9-0.4c-3.4-0.1-6.3-1.1-9.6-1.7
					c-2.5-0.4-5,0.1-7.4,0.7c-1.6,0.4-3.1,0.8-4.8,0.9c-1.7,0.1-3.2-0.1-4.9,0.2c-2.7,0.4-5.4,0.9-8.2,1.2c0.1,0.8,0.2,1.6,0.4,2.4
					c0.4,0,0.7-0.1,1.1-0.1c2.7-0.3,5.3-0.9,7.9-1.2c2.8-0.4,5.5-0.1,8.3-0.7c3.4-0.8,6.3-1.2,9.7-0.2c2.8,0.8,5.5,1,8.4,1.2
					c1.7,0.1,3.2,0.2,4.8,0.7c1.3,0.4,2.5,1,3.8,1.3c2.5,0.6,5.1-0.3,7.5-1c0.4-0.1,0.9-0.2,1.3-0.3c0.2-0.8,0.3-1.7,0.3-2.5
					C73.6,27.5,70.5,29,67,27.9z"/>
				<path class="st3" d="M68.6,35.1c-3-0.7-6.1-0.5-9.2-1.2c-2.6-0.6-6-2-8.7-1.4c-0.9,0.2-1.7,0.6-2.5,1.1c-1,0.5-2.8-0.4-4.1-0.1
					c-1.2,0.3-2.3,0.8-3.4,1.2c-1.2,0.4-3.1-0.6-4.3-0.8c-3-0.6-6.2,0.6-9,1.4c-0.5,0.1-1,0.3-1.4,0.4c0.7,1.5,1.6,2.9,2.7,4.2
					c2.3-0.8,4.9-1.6,7.1-1.2c2.5,0.5,4.5,1.2,7.1,0.4c1.4-0.4,2.1-1,3.5-0.6c1.2,0.4,2.9,0,4-0.5c1.1-0.5,1.4-0.8,2.7-0.6
					c1.4,0.2,2.8,0.6,4.2,1c3.1,0.8,6.1,0.8,9.3,1.2c1.6,0.2,3.1,0.7,4.6,1.2c1.1-1.2,2-2.5,2.8-3.9C72.2,36.1,70.4,35.5,68.6,35.1z
					"/>
				<path class="st4" d="M57,4.7c2.6-0.2,5.2-0.6,7.8-0.7c-4.2-2.5-9.2-4-14.6-4c-4.9,0-9.5,1.2-13.4,3.3c2.3,0.3,4.7,0.5,6.6,0.7
					C46.9,4.4,52.6,5,57,4.7z"/>
				<path class="st1" d="M27.1,12.3c2.4-0.5,4.9-0.8,7.4-1c2.4-0.2,4.5,0.2,6.9,0.5c2.8,0.3,5.5,0.2,8.2-0.1
					c1.1-0.1,2.3-0.3,3.4-0.5c1.7-0.2,2.7,0.2,4.2,0.7c2.3,0.8,4.9,0.9,7.3,0.9c2.6,0,5.1,0.4,7.7,0.6c0.6,0,1.2,0,1.8-0.1
					c-1-1.8-2.2-3.4-3.6-4.9c-2-0.2-3.9-0.5-5.9-0.5c-2.7,0-5.1-0.4-7.6-1.3c-2.7-1-5.6-0.1-8.3,0.3c-5.3,0.6-10.4-0.8-15.7-0.4
					c-0.3,0-0.7,0.1-1,0.1C30,8.3,28.4,10.2,27.1,12.3z"/>
				<path class="st3" d="M63.3,17.4c-3.1-0.8-6-1.6-9.3-1.6c-3.3,0-6.6,0-9.9,0.2c-1.6,0.1-3.1,0.5-4.6,0.9
					c-1.8,0.5-3.4,0.5-5.2,0.4c-3.2-0.1-6.5,0.1-9.9,0.4c-0.1,0.4-0.3,0.8-0.4,1.2c3.4-0.4,6.9-0.5,10.2-0.4
					c2.7,0.1,4.6-0.2,7.3-0.9c3.3-0.9,7.2-0.4,10.6-0.5c6.1-0.2,11.6,2.4,17.7,2.4c2.2,0,4.3-0.1,6.4,0.1c-0.1-0.4-0.2-0.8-0.3-1.2
					c-0.8-0.1-1.6-0.1-2.5-0.2C70.1,18.1,66.8,18.2,63.3,17.4z"/>
			</g>
			<ellipse class="st1" cx="70.4" cy="22.2" rx="1.6" ry="0.9"/>
			<ellipse class="st1" cx="32.1" cy="21.2" rx="1.6" ry="0.9"/>
			<ellipse class="st1" cx="64.8" cy="32.8" rx="1.6" ry="0.9"/>
			<ellipse class="st1" cx="46.3" cy="2.4" rx="1.6" ry="0.9"/>
			<ellipse class="st1" cx="53.3" cy="42.7" rx="0.9" ry="0.5"/>
			<ellipse class="st1" cx="52.8" cy="19.3" rx="0.9" ry="0.5"/>
			<ellipse class="st1" cx="38.7" cy="31.1" rx="0.9" ry="0.5"/>
			<ellipse class="st1" cx="63.7" cy="6.7" rx="0.6" ry="0.3"/>
			<ellipse class="st1" cx="39.5" cy="5.1" rx="0.6" ry="0.3"/>
			<ellipse class="st1" cx="43.2" cy="20.9" rx="0.6" ry="0.3"/>
			<path class="st1" d="M61,23.5c0,0.2-0.3,0.3-0.6,0.3c-0.3,0-0.6-0.1-0.6-0.3s0.3-0.3,0.6-0.3C60.7,23.2,61,23.3,61,23.5z"/>
			<ellipse class="st1" cx="66.7" cy="14.5" rx="0.6" ry="0.3"/>
			<path class="st1" d="M51.1,30.1c0,0.2-0.3,0.3-0.6,0.3c-0.3,0-0.6-0.1-0.6-0.3s0.3-0.3,0.6-0.3C50.8,29.8,51.1,30,51.1,30.1z"/>
			<ellipse class="st1" cx="46" cy="41.3" rx="0.6" ry="0.3"/>
			<path class="st1" d="M62.3,42.5c0,0.2-0.3,0.3-0.6,0.3c-0.3,0-0.6-0.1-0.6-0.3c0-0.2,0.3-0.3,0.6-0.3
				C62,42.1,62.3,42.3,62.3,42.5z"/>
			<ellipse class="st1" cx="30.7" cy="31.7" rx="0.6" ry="0.3"/>
			<path class="st1" d="M32.7,14.1c0,0.2-0.3,0.3-0.6,0.3c-0.3,0-0.6-0.1-0.6-0.3s0.3-0.3,0.6-0.3C32.5,13.8,32.7,13.9,32.7,14.1z"
				/>
			<path class="st1" d="M54.3,13.5c0,0.2-0.3,0.3-0.6,0.3c-0.3,0-0.6-0.1-0.6-0.3s0.3-0.3,0.6-0.3C54.1,13.2,54.3,13.4,54.3,13.5z"
				/>
		</g>
		<g>
			<path class="st5" d="M71.7,10C63,21.4,46.8,39.4,30,41.5c4.9,5.2,12.2,8.5,20.2,8.5c14.8,0,26.9-11.2,26.9-25
				C77.1,19.4,75.1,14.2,71.7,10z"/>
			<path class="st5" d="M77.1,24.4c-8.9,10-23.8,22.2-42.6,20.8c4.4,3,9.9,4.8,15.8,4.8c14.8,0,26.9-11.2,26.9-25
				C77.1,24.8,77.1,24.6,77.1,24.4z"/>
		</g>
	</g>
	<path class="st0" d="M100,20.7c-0.4-4-9.8-6.5-23.7-7c0.3,0.9,0.7,1.8,1,2.7c7.2,0.8,12.1,2.6,12.4,5.5c0.7,6.2-19.6,12-39.1,14.2
		c-19.5,2.2-40.5,1.3-41.2-5c-0.3-3.1,4.6-6.1,12-8.6c0-0.9,0.1-1.8,0.3-2.6C8.2,23.6-0.4,28.2,0,32.2c0.7,6.3,23.6,8.9,51.2,5.7
		C78.8,34.7,100.7,27,100,20.7z"/>
	<path class="st0" d="M77.7,17.9c0,0.1,0,0.1,0,0.2c0.2,1.1,0.3,2.2,0.1,3.3c0.7,0.5,1.1,1.1,1.2,1.8c0.5,4.6-14.4,8.8-28.6,10.4
		c-14.2,1.6-29.6,0.9-30.1-3.6c-0.1-1.1,0.6-2.1,2-3.1c-0.4-0.8-0.6-1.7-0.8-2.6c-5.3,2.1-8.3,4.4-8.1,6.4
		c0.5,4.6,17.3,6.5,37.5,4.1c20.2-2.3,36.1-8,35.6-12.6C86.3,20.2,83,18.7,77.7,17.9z"/>
	<g>
		<linearGradient id="SVGID_1_" gradientUnits="userSpaceOnUse" x1="35.621" y1="4.2518" x2="51.3686" y2="23.6984">
			<stop  offset="0" style="stop-color:#FFFFFF"/>
			<stop  offset="1" style="stop-color:#FFFFFF;stop-opacity:0"/>
		</linearGradient>
		<path class="st6" d="M59.1,5.4c3.6,5.7-0.5,14.1-9.1,18.8c-8.6,4.7-18.5,3.9-22.1-1.7C24.3,16.8,28.4,8.4,37,3.7
			C45.6-1,55.5-0.3,59.1,5.4z"/>
		<path class="st7" d="M51.2,4.7c2.1,3.4-0.7,8.6-6.3,11.7c-5.6,3.1-11.9,2.8-14.1-0.6c-2.1-3.4,0.7-8.6,6.3-11.7
			C42.8,1,49.1,1.3,51.2,4.7z"/>
	</g>
</g>
</svg>
