<?xml version="1.0" encoding="utf-8"?>
<!-- Generator: Adobe Illustrator 25.1.0, SVG Export Plug-In . SVG Version: 6.00 Build 0)  -->
<svg version="1.1" id="Слой_1" xmlns="http://www.w3.org/2000/svg" xmlns:xlink="http://www.w3.org/1999/xlink" x="0px" y="0px"
	 viewBox="0 0 85 50" style="enable-background:new 0 0 85 50;" xml:space="preserve">
<style type="text/css">
	.st0{fill:#FFC585;}
	.st1{fill:#F7941E;}
	.st2{fill:#FBB040;}
	.st3{fill:#E05B41;}
	.st4{fill:#F15A29;}
	.st5{opacity:0.2;fill:#212A3C;}
	.st6{opacity:0.3;fill:url(#SVGID_1_);}
	.st7{opacity:0.3;fill:#FFFFFF;}
</style>
<g>
	<path class="st0" d="M43.2,18.5c-23.5-1-42.8,2.7-43.2,8.3c-0.4,5.6,18.3,11,41.8,12c23.5,1,42.8-2.7,43.2-8.3
		C85.4,24.9,66.7,19.5,43.2,18.5z M41.6,36.2c-14.4-0.6-29.5-3.9-29.1-8.7c0.3-4.8,15.8-6.7,30.2-6.1C57,22,72.1,25.2,71.8,30
		C71.4,34.9,56,36.8,41.6,36.2z"/>
	<g>
		<g>
			<path class="st1" d="M68.1,29.2c-2.4,13.6-15.6,22.8-29.6,20.5c-14-2.3-23.4-15.2-21-28.8C19.9,7.2,33.2-1.9,47.1,0.4
				C61.1,2.6,70.5,15.5,68.1,29.2z"/>
			<g>
				<path class="st2" d="M56.4,14c-1.2-0.5-2.4-0.9-3.6-1.3c-2.7-0.9-5.4-2-8.3-2.4c-1.4-0.2-8-0.8-7.5,2c0.2,0.9,1.4,1.4,2.1,1.8
					c1.8,1,3.9,1.7,6.1,1.8c1.4,0,2.8-0.4,4.2-0.2c1.6,0.2,3.3,0.4,4.9,0.7c0.3,0.1,1.6,0.4,2.8,0.5c1.1,0.1,2,0,2-0.6
					C59.1,15.2,57.3,14.4,56.4,14z"/>
				<path class="st3" d="M65.9,14C62.4,7,55.6,1.7,47.1,0.4c-7.3-1.2-14.5,0.8-19.9,4.9C32.8,5.9,38.4,6.8,44,6.5
					c1.5-0.1,3.1-0.3,4.6,0c3.5,0.7,6.5,2.7,9.5,4.5C60.2,12.1,63.2,13.8,65.9,14z"/>
				<path class="st3" d="M61,32.4c-0.9-0.3-1.9-0.7-2.9-0.6c-0.7,0-2,0.6-1.2,1.4c0.2,0.2,0.9,0.4,1.2,0.5c2,0.7,4,1.4,6.1,2
					c0.6,0.2,1.1,0.3,1.7,0.4c0.4-0.9,0.8-1.8,1.2-2.7C65,33.2,63,33,61,32.4z"/>
				<path class="st3" d="M61,38.4c-1-0.2-10.6-3.5-11.1-2.4c-0.5,1-1.7,3.3-2.1,3.9c-0.4,0.6-3,1-3,1s-1.3-0.4-3.3-0.3
					c-6.5,0.2-10.8-10-17.4-6.8c-1.2,0.6-3.8-0.1-4.9,0.1c-0.1,0-0.2,0-0.3,0c3.1,8,10.4,14.2,19.7,15.7
					c10.1,1.7,19.9-2.7,25.4-10.4C63.1,38.9,62.1,38.6,61,38.4z"/>
				<path class="st2" d="M36.6,29.3c-1.4-0.3-2.9-0.9-4.4-0.8c-0.9,0.1-2.4,0.5-1.3,1.5c0.7,0.6,1.9,0.5,2.7,0.9c1,0.4,2,1,2.9,1.6
					c2,1.3,3.9,2.5,6.5,2.3c1.7-0.1,3.3-0.2,4.6-1.4c0.7-0.7,1.2-1.9,2.2-2.4c-1.1-0.9-2.7-0.6-3.9-0.6
					C42.8,30.5,39.7,29.9,36.6,29.3z"/>
				<path class="st4" d="M26.3,12c1,0.1,2,0.4,3,0.2c0.7-0.1,1.9-0.9,1-1.6c-0.3-0.2-1-0.2-1.3-0.3c-2-0.4-4.1-0.7-6.1-1
					c-0.7,0.8-1.3,1.7-1.9,2.6C22.7,11.9,24.5,11.8,26.3,12z"/>
				<path class="st4" d="M19.2,19.9c1.7,0.7,1.9,0.4,4.1,1.5c2.2,1,5.8,1.6,6.3,1.8c0.5,0.2,1.6,0.4,2,0.5c0.4,0.1,3.7,0.6,4.8,0.8
					c1.1,0.2,7.8,1.3,8.3,1.4c0.5,0.1,4.1,0.4,5.3,0.5c1.1,0.1,3.9,0.4,3.9,0.4s0.3,0,3.2,0.1c2.9,0.1,6.2,0.1,7.3,0.9
					c0.6,0.5,2.3,0.9,3.8,1.3c0.2-1.4,0.3-2.7,0.3-4.1l-6.1-2.7l-6.5-0.5c0,0-3.9,1.2-4.9,1.3c-1,0.1-2.3-0.3-3-0.4
					c-0.7-0.1-4.3-1-4.3-1s-2.6-1.1-5.1-1.5c-2.5-0.4-8-1.6-8.9-1.5c-0.9,0.1-2.8-0.2-3.2-0.3c-0.4-0.1-6.2-1-8-1.3
					c-0.3,0.8-0.5,1.6-0.7,2.4C18.2,19.6,18.6,19.7,19.2,19.9z"/>
			</g>
			<path class="st2" d="M36.4,16.4C36.2,17,34.7,17.3,33,17c-1.8-0.3-3.1-1-3-1.6c0.1-0.6,1.6-0.9,3.4-0.6
				C35.1,15.1,36.5,15.8,36.4,16.4z"/>
			<path class="st2" d="M61.7,29.8c-0.1,0.4-1,0.6-2.1,0.4c-1.1-0.2-2-0.6-1.9-1c0.1-0.4,1-0.6,2.1-0.4S61.8,29.4,61.7,29.8z"/>
			<path class="st2" d="M25.3,25.3c-0.1,0.4-1,0.6-2.1,0.4c-1.1-0.2-2-0.6-1.9-1c0.1-0.4,1-0.6,2.1-0.4C24.5,24.5,25.4,25,25.3,25.3
				z"/>
			<path class="st2" d="M65.7,19.9c-0.1,0.3-0.9,0.5-1.9,0.3c-1-0.2-1.7-0.6-1.6-0.9c0.1-0.3,0.9-0.5,1.9-0.3
				C65,19.1,65.8,19.5,65.7,19.9z"/>
			<path class="st2" d="M46.6,38.3c-0.1,0.3-0.9,0.5-1.9,0.3c-1-0.2-1.7-0.6-1.6-0.9c0.1-0.3,0.9-0.5,1.9-0.3
				C45.9,37.5,46.7,37.9,46.6,38.3z"/>
			<path class="st2" d="M31,7.8c-0.1,0.3-0.9,0.5-1.9,0.3c-1-0.2-1.7-0.6-1.6-0.9c0.1-0.3,0.9-0.5,1.9-0.3C30.3,7,31,7.4,31,7.8z"/>
		</g>
		<g>
			<path class="st5" d="M20.6,37.4c3.7,6.3,10.1,11,18,12.3c14,2.3,27.2-6.9,29.6-20.5c1-5.6-0.1-11-2.5-15.7
				C56.5,22.9,36.9,40.7,20.6,37.4z"/>
			<path class="st5" d="M22.4,40.1c3.8,4.9,9.5,8.5,16.2,9.6c14,2.3,27.2-6.9,29.6-20.5c0.1-0.8,0.2-1.6,0.3-2.4
				C59,35.5,41.4,47.9,22.4,40.1z"/>
		</g>
		
			<linearGradient id="SVGID_1_" gradientUnits="userSpaceOnUse" x1="29.0599" y1="78.0869" x2="39.9349" y2="98.0981" gradientTransform="matrix(0.8306 -4.273437e-03 2.318720e-02 0.8513 7.8833 -60.1921)">
			<stop  offset="0" style="stop-color:#FFFFFF"/>
			<stop  offset="1" style="stop-color:#FFFFFF;stop-opacity:0"/>
		</linearGradient>
		<path class="st6" d="M55.1,7.9c2.6,6.4-2.8,14.4-12,18c-9.2,3.6-18.8,1.3-21.4-5c-2.6-6.4,2.8-14.4,12-18
			C42.9-0.8,52.5,1.5,55.1,7.9z"/>
		<path class="st7" d="M47.5,5.9c1.6,3.8-2.1,8.8-8.1,11.1c-6,2.3-12.2,1.1-13.7-2.7c-1.6-3.8,2.1-8.8,8.1-11.1
			C39.8,0.9,45.9,2.1,47.5,5.9z"/>
	</g>
	<path class="st0" d="M85,30.5c0.2-3.2-5.6-6.2-15-8.5c-0.2,1.6-0.5,3.1-0.8,4.6c1.7,1,2.7,2.2,2.6,3.4c-0.3,4.8-15.8,6.7-30.2,6.1
		c-14.4-0.6-29.5-3.9-29.1-8.7c0.1-1.1,1-2.1,2.5-2.9c-0.3-1.5-0.1-3.2,0.2-4.8c-9.1,1.5-15,4-15.2,7c-0.4,5.6,18.3,11,41.8,12
		C65.3,39.9,84.6,36.1,85,30.5z"/>
</g>
</svg>
