<?xml version="1.0" encoding="utf-8"?>
<!-- Generator: Adobe Illustrator 25.1.0, SVG Export Plug-In . SVG Version: 6.00 Build 0)  -->
<svg version="1.1" id="Слой_1" xmlns="http://www.w3.org/2000/svg" xmlns:xlink="http://www.w3.org/1999/xlink" x="0px" y="0px"
	 viewBox="0 0 50 50" style="enable-background:new 0 0 50 50;" xml:space="preserve">
<style type="text/css">
	.st0{fill:#EA3232;}
	.st1{fill:#F15A29;}
	.st2{opacity:0.2;fill:#212A3C;}
	.st3{opacity:0.3;fill:url(#SVGID_1_);}
	.st4{opacity:0.3;fill:#FFFFFF;}
</style>
<g>
	<g>
		<circle class="st0" cx="25" cy="25" r="25"/>
		<path class="st1" d="M25,0C14.2,0,5,6.8,1.5,16.4c3.2-0.9,5.9-0.4,8.4,1.1c2.9,1.8,6.9-0.4,9.7-5.8c2.8-5.3,5.1,0.9,8.3,4.7
			s5-2.2,3.6-7.7c-0.2-0.8-0.7-3.2,0.5-3.4c1.4-0.3,2.6,1,3.6,1.9c1.1,1,2.3,2.1,3.6,2.7c1.5,0.8,3.2,1.2,4.9,1.7
			c0.4,0.1,0.8,0.2,1.2,0.3c0.1,0,1,0.1,1,0.2C42,4.8,34.1,0,25,0z"/>
		<path class="st2" d="M31.3,49.2c2.5-0.7,4.9-1.7,7.1-3.1c0.6-0.4,1.1-0.8,1.7-1.2c1.9-1.5,3.7-3.3,5.2-5.2c3-4.1,4.8-9.2,4.8-14.7
			c0-1-0.1-2-0.2-3c-0.4,1-1,2.3-1.1,2.7c-0.8,2-1.1,4.7-3.1,6C45,31.1,44,31,43.4,30.6c-1.6-1.1-2.4-3.1-3.2-4.8
			c-0.4-0.9-0.8-1.9-1.1-2.9c-0.2-0.5-0.4-0.9-0.5-1.4c0,0,0,0,0-0.1c0.6,2.9,1.8,8.3-0.6,10.7c-4.9,5.1-12.1-1.6-13.9-6.4
			c-0.7-2-1.3-4.4-1.3-6.4c0.2,7-6.2,12.5-12.4,14.8c-1.8,0.7-4.7,1.2-6.5,0.5c-0.8-0.3-2.5-1.3-2.8-2.1c0,0,0,0.1,0,0.1
			c0.1,0.3,0.2,0.6,0.3,0.9c0.1,0.1,0.1,0.3,0.2,0.4c0.1,0.2,0.2,0.4,0.2,0.6C1.9,34.7,2,34.8,2.1,35c0.1,0.2,0.2,0.4,0.3,0.6
			c0.1,0.1,0.1,0.3,0.2,0.4c0.1,0.2,0.2,0.4,0.3,0.6C2.9,36.7,3,36.9,3.1,37c0.2,0.3,0.3,0.6,0.5,0.9c0.1,0.1,0.1,0.2,0.2,0.3
			c0.1,0.2,0.2,0.4,0.4,0.6c0.1,0.1,0.2,0.3,0.3,0.4c0.1,0.2,0.2,0.4,0.4,0.5C4.9,39.9,5,40,5.1,40.1c0.1,0.2,0.3,0.4,0.4,0.5
			c0.1,0.1,0.2,0.2,0.3,0.3c0.2,0.3,0.5,0.5,0.7,0.8c0.1,0.1,0.1,0.1,0.2,0.2c0.2,0.2,0.4,0.4,0.6,0.6c0.1,0.1,0.2,0.2,0.3,0.3
			C7.7,43,7.9,43.2,8,43.3c0.1,0.1,0.2,0.2,0.3,0.3c0.2,0.2,0.4,0.3,0.5,0.5c0.1,0.1,0.2,0.2,0.3,0.3c0.2,0.2,0.5,0.4,0.7,0.6
			c0,0,0.1,0.1,0.1,0.1c0.3,0.2,0.6,0.4,0.9,0.6c0.1,0.1,0.2,0.1,0.3,0.2c0.2,0.1,0.4,0.3,0.6,0.4c0.1,0.1,0.2,0.1,0.4,0.2
			c0.2,0.1,0.4,0.2,0.6,0.4c0.1,0.1,0.2,0.1,0.3,0.2c0.3,0.1,0.5,0.3,0.8,0.4c0.1,0,0.2,0.1,0.2,0.1c0.3,0.2,0.7,0.3,1,0.5
			c0.1,0,0.2,0.1,0.3,0.1c0.3,0.1,0.5,0.2,0.8,0.3c0.1,0,0.3,0.1,0.4,0.1c0.2,0.1,0.5,0.2,0.7,0.2c0.1,0,0.3,0.1,0.4,0.1
			c0.3,0.1,0.5,0.2,0.8,0.2c0.1,0,0.2,0.1,0.3,0.1c0.4,0.1,0.7,0.2,1.1,0.3c0.1,0,0.1,0,0.2,0c0.3,0.1,0.6,0.1,0.9,0.2
			c0.1,0,0.3,0,0.4,0.1c0.3,0,0.5,0.1,0.8,0.1c0.1,0,0.3,0,0.4,0c0.3,0,0.5,0,0.8,0.1c0.1,0,0.2,0,0.4,0c0.4,0,0.8,0,1.2,0
			c1.4,0,2.8-0.2,4.2-0.4C29.9,49.5,30.6,49.4,31.3,49.2z"/>
	</g>
	
		<linearGradient id="SVGID_1_" gradientUnits="userSpaceOnUse" x1="12.1086" y1="56.3967" x2="22.4121" y2="75.3563" gradientTransform="matrix(0.8203 -0.1306 0.1524 0.8378 -5.4202 -38.1044)">
		<stop  offset="0" style="stop-color:#FFFFFF"/>
		<stop  offset="1" style="stop-color:#FFFFFF;stop-opacity:0"/>
	</linearGradient>
	<path class="st3" d="M33,6.1c3.3,5.6-0.5,14-8.4,18.7c-8,4.7-17.1,3.9-20.4-1.7C0.8,17.4,4.6,9,12.6,4.3C20.5-0.3,29.7,0.4,33,6.1z
		"/>
	<path class="st4" d="M25.7,5.3c2,3.4-0.6,8.6-5.8,11.6c-5.2,3.1-11,2.8-13-0.6c-2-3.4,0.6-8.6,5.8-11.6C17.9,1.7,23.7,2,25.7,5.3z"
		/>
</g>
</svg>
